<svg width="4587" height="3548" viewBox="0 0 4587 3548" fill="none" xmlns="http://www.w3.org/2000/svg">
<rect width="4587" height="3548" fill="transparent"/>
<path d="M907.573 377.063L957.219 580.434L851.622 863.507L681.495 559.368L705.101 382.924L907.573 377.063Z" fill="#EEBB99"/>
<path d="M966.442 569.901H672.695V888.523H966.442V569.901Z" fill="#ADEDE1"/>
<path d="M845.648 479.504C956.441 479.504 1046.26 398.875 1046.26 299.413C1046.26 199.952 956.441 119.322 845.648 119.322C734.856 119.322 645.04 199.952 645.04 299.413C645.04 398.875 734.856 479.504 845.648 479.504Z" fill="#EEBB99"/>
<path d="M671.028 433.329C671.028 433.329 521.494 185.41 656.316 66.1045C791.139 -53.2008 899.367 25.414 899.367 25.414L961.17 23.1717C961.17 23.1717 974.06 66.835 994.844 43.1982C1015.63 19.5614 1053.19 105.644 1053.19 105.644C1122.89 218.346 881.241 243.593 881.241 243.593C881.241 243.593 898.691 293.494 880.955 303.944C863.218 314.395 815.829 353.707 815.829 353.707L773.413 382.466L748.206 347.988C748.206 347.988 721.877 329.329 708.574 337.167C695.272 345.005 713.57 448.131 713.57 448.131L671.028 433.329Z" fill="#2E2E41"/>
<path d="M430.37 2257.23L353.672 3284.3L542.221 3290.04L791.488 2265.84L430.37 2257.23Z" fill="#2E2E41"/>
<path d="M887.36 2251.5L810.663 3278.56L999.211 3284.3L1248.48 2260.1L887.36 2251.5Z" fill="#2E2E41"/>
<path d="M384.186 2491.89L484.559 1373.27L330.632 790.778C317.361 704.191 378.134 622.261 471.929 599.92L622.549 564.047L689.214 504.197L840.849 804.81L935.553 504.426L1009.41 552.648L1228.46 639.407L1228.36 641.438L1193.23 1345.08L1271.66 2481.93L1268.18 2481.97L384.186 2491.89Z" fill="white"/>
<path d="M987.105 3272.63L1041.7 3418.94C1041.7 3418.94 1255.29 3445.01 1258.61 3504.37C1261.93 3563.73 968.333 3529.37 796.413 3537.13C624.493 3544.88 767.603 3377.75 767.603 3377.75L785.924 3281.7L987.105 3272.63Z" fill="#2E2E41"/>
<path d="M541.254 3262.09L595.848 3408.41C595.848 3408.41 809.436 3434.48 812.76 3493.84C816.083 3553.2 522.483 3518.84 350.562 3526.59C178.642 3534.35 321.752 3367.21 321.752 3367.21L340.073 3271.17L541.254 3262.09Z" fill="#2E2E41"/>
<path d="M274.894 1897.8C272.578 1868.95 277.995 1840.03 290.689 1813.44L249.943 1513.38L409.555 1500.15L433.698 1805.95C449.738 1831.03 458.857 1859.18 460.291 1888.07C464.985 1960.32 427.287 2021.04 376.085 2023.72C324.883 2026.41 279.575 1970.03 274.894 1897.8Z" fill="#EEBB99"/>
<path d="M1285.84 1941.85C1283.88 1912.98 1289.64 1884.11 1302.66 1857.65L1265.56 1557.2L1425.32 1545.54L1445.75 1851.56C1461.49 1876.79 1470.26 1905.03 1471.34 1933.93C1475.16 2006.22 1436.73 2066.57 1385.5 2068.75C1334.27 2070.93 1289.64 2014.12 1285.84 1941.85Z" fill="#EEBB99"/>
<path d="M249.286 1777.46L248.746 1774.88L165.562 1374.19L263.853 721.728C272.624 663.477 330.564 621.515 395.901 626.205C430.023 628.657 460.637 643.185 482.112 667.119C503.583 691.053 512.874 721.003 508.271 751.455L434.293 1240.8L480.87 1764.19L249.286 1777.46Z" fill="white"/>
<path d="M1236.54 1768.06L1069.3 765.855C1060.6 736.468 1065.69 705.714 1083.7 679.581C1101.71 653.447 1130.08 635.628 1163.61 629.403C1227.74 617.496 1291.07 652.69 1307.81 709.513L1468.48 1755.47L1236.54 1768.06Z" fill="white"/>
<path d="M845.756 896.423C857.096 896.423 866.288 888.17 866.288 877.99C866.288 867.81 857.096 859.557 845.756 859.557C834.416 859.557 825.223 867.81 825.223 877.99C825.223 888.17 834.416 896.423 845.756 896.423Z" fill="#ADEDE1"/>
<path d="M845.756 1035.98C857.096 1035.98 866.288 1027.73 866.288 1017.55C866.288 1007.37 857.096 999.119 845.756 999.119C834.416 999.119 825.223 1007.37 825.223 1017.55C825.223 1027.73 834.416 1035.98 845.756 1035.98Z" fill="#ADEDE1"/>
<path d="M845.756 1175.55C857.096 1175.55 866.288 1167.29 866.288 1157.11C866.288 1146.93 857.096 1138.68 845.756 1138.68C834.416 1138.68 825.223 1146.93 825.223 1157.11C825.223 1167.29 834.416 1175.55 845.756 1175.55Z" fill="#ADEDE1"/>
<path d="M845.756 1315.11C857.096 1315.11 866.288 1306.85 866.288 1296.67C866.288 1286.49 857.096 1278.24 845.756 1278.24C834.416 1278.24 825.223 1286.49 825.223 1296.67C825.223 1306.85 834.416 1315.11 845.756 1315.11Z" fill="#ADEDE1"/>
<path d="M845.756 1454.67C857.096 1454.67 866.288 1446.42 866.288 1436.24C866.288 1426.06 857.096 1417.8 845.756 1417.8C834.416 1417.8 825.223 1426.06 825.223 1436.24C825.223 1446.42 834.416 1454.67 845.756 1454.67Z" fill="#ADEDE1"/>
<path d="M845.756 1594.23C857.096 1594.23 866.288 1585.98 866.288 1575.8C866.288 1565.62 857.096 1557.37 845.756 1557.37C834.416 1557.37 825.223 1565.62 825.223 1575.8C825.223 1585.98 834.416 1594.23 845.756 1594.23Z" fill="#ADEDE1"/>
<path d="M845.756 1733.79C857.096 1733.79 866.288 1725.54 866.288 1715.36C866.288 1705.18 857.096 1696.93 845.756 1696.93C834.416 1696.93 825.223 1705.18 825.223 1715.36C825.223 1725.54 834.416 1733.79 845.756 1733.79Z" fill="#ADEDE1"/>
<path d="M845.756 1873.35C857.096 1873.35 866.288 1865.1 866.288 1854.92C866.288 1844.74 857.096 1836.49 845.756 1836.49C834.416 1836.49 825.223 1844.74 825.223 1854.92C825.223 1865.1 834.416 1873.35 845.756 1873.35Z" fill="white"/>
<path d="M845.78 1981.31L457.28 1934.83L449.799 1933.94L251.245 1522.95L133 1278.25H440.993L845.78 1981.31Z" fill="black"/>
<path d="M1034 784.415L1021.28 781.089C1047.77 699.572 991.306 545.092 990.731 543.565L1006.62 554.318C1009.04 560.7 1061.64 699.328 1034 784.415Z" fill="#3F3C57"/>
<path d="M587.167 798.898L599.879 795.572C573.396 714.054 630.499 561.931 631.074 560.404L617.477 568.581C615.053 574.963 559.521 713.81 587.167 798.898Z" fill="#3F3C57"/>
<path d="M1027.64 878.047C1058.19 878.047 1082.95 855.817 1082.95 828.394C1082.95 800.972 1058.19 778.741 1027.64 778.741C997.094 778.741 972.331 800.972 972.331 828.394C972.331 855.817 997.094 878.047 1027.64 878.047Z" fill="#3F3C57"/>
<path d="M646.134 1104.24H612.591C608.931 1104.24 605.97 1101.58 605.97 1098.3C605.97 1095.02 608.931 1092.36 612.591 1092.36H646.134C655.379 1092.36 664.062 1089.12 670.593 1083.25C677.116 1077.38 680.704 1069.57 680.685 1061.28L680.278 875.803C680.278 835.51 643.774 802.74 598.903 802.74C554.033 802.74 517.522 835.51 517.522 875.792L517.929 1049.4C517.968 1066.34 533.35 1080.22 552.216 1080.35L575.239 1080.51C578.892 1080.53 581.834 1083.21 581.808 1086.5C581.783 1089.76 578.821 1092.39 575.188 1092.39H575.136L552.112 1092.24C526.018 1092.06 504.74 1072.85 504.688 1049.42L504.281 875.803C504.281 828.957 546.727 790.853 598.903 790.853C651.073 790.853 693.519 828.957 693.519 875.792L693.926 1061.26C693.952 1072.73 688.993 1083.53 679.961 1091.65C670.935 1099.77 658.916 1104.24 646.134 1104.24Z" fill="#3F3C57"/>
<path d="M575.19 1107.52C588.15 1107.52 598.656 1098.09 598.656 1086.45C598.656 1074.82 588.15 1065.39 575.19 1065.39C562.23 1065.39 551.724 1074.82 551.724 1086.45C551.724 1098.09 562.23 1107.52 575.19 1107.52Z" fill="#3F3C57"/>
<path d="M612.588 1119.37C625.548 1119.37 636.054 1109.94 636.054 1098.3C636.054 1086.67 625.548 1077.23 612.588 1077.23C599.629 1077.23 589.123 1086.67 589.123 1098.3C589.123 1109.94 599.629 1119.37 612.588 1119.37Z" fill="#3F3C57"/>
<path d="M3828.64 421.698L4075.64 300.224V647.291H3789.98L3828.64 421.698Z" fill="#2E2E41"/>
<path d="M4128.6 499.076L4151.39 669.466L3987.1 963.168L3885.13 689.809L3933.07 493.416L4128.6 499.076Z" fill="#EEBB99"/>
<path d="M4159.89 679.637H3876.22V987.326H4159.89V679.637Z" fill="#ADEDE1"/>
<path d="M4393.9 2309.07L4467.96 3300.89L4285.89 3306.43L4045.17 2317.38L4393.9 2309.07Z" fill="#2E2E41"/>
<path d="M3952.59 2303.53L4026.66 3295.35L3844.58 3300.89L3603.86 2311.84L3952.59 2303.53Z" fill="#2E2E41"/>
<path d="M4586.27 2519.43L4581.93 2519.42L3422 2516.02L3423.04 2512.33L3721.26 1451.64L3646.55 916.347C3632.4 814.915 3692.88 719.04 3797.06 677.781L3834.67 662.887L3906.12 616.241L3997.53 906.189L4143.9 616.015L4208.38 673.892L4353.79 708.529C4444.43 730.115 4503.15 809.281 4490.38 892.677L4490.23 893.257L4268.16 1462.11L4586.27 2519.43Z" fill="white"/>
<path d="M3856.27 3289.62L4050.55 3298.39L4068.24 3391.14C4068.24 3391.14 4206.44 3552.54 4040.42 3545.05C3874.39 3537.55 3590.87 3570.74 3594.08 3513.41C3597.29 3456.09 3803.55 3430.91 3803.55 3430.91L3856.27 3289.62Z" fill="#2E2E41"/>
<path d="M4286.82 3279.45L4481.1 3288.22L4498.79 3380.96C4498.79 3380.96 4636.99 3542.37 4470.97 3534.87C4304.95 3527.38 4021.42 3560.57 4024.63 3503.24C4027.84 3445.92 4234.1 3420.74 4234.1 3420.74L4286.82 3279.45Z" fill="#2E2E41"/>
<path d="M4464.73 1951.8C4460.21 2021.55 4416.45 2075.99 4367.01 2073.4C4317.56 2070.81 4281.16 2012.18 4285.69 1942.4C4287.08 1914.51 4295.88 1887.32 4311.37 1863.11L4334.69 1567.79L4488.82 1580.57L4449.47 1870.34C4461.73 1896.01 4466.96 1923.94 4464.73 1951.8Z" fill="#EEBB99"/>
<path d="M3672.64 1925.28C3666.47 1994.93 3621.43 2048.52 3572.06 2044.99C3522.69 2041.45 3487.68 1982.13 3493.87 1912.46C3495.91 1884.6 3505.36 1857.58 3521.42 1833.67L3551.73 1538.87L3705.53 1554.59L3659.32 1843.54C3670.97 1869.44 3675.54 1897.47 3672.64 1925.28Z" fill="#EEBB99"/>
<path d="M4489.55 1835.7L4265.69 1822.87L4265.97 1819.86L4310.68 1317.34L4239.25 844.803C4234.8 815.37 4243.78 786.419 4264.53 763.286C4285.29 740.15 4314.88 726.107 4347.86 723.736C4411.02 719.267 4467.02 759.766 4475.5 816.07L4570.42 1446.16L4570.32 1446.63L4489.55 1835.7Z" fill="white"/>
<path d="M3709.91 1816.45L3485.7 1804.28L3486.19 1801.1L3640.8 794.446C3657.06 739.158 3718.3 705.151 3780.27 716.655C3812.67 722.671 3840.1 739.895 3857.5 765.158C3874.91 790.421 3879.83 820.144 3871.35 848.858L3709.91 1816.45Z" fill="white"/>
<path d="M3992.77 994.954C4003.72 994.954 4012.59 986.985 4012.59 977.154C4012.59 967.324 4003.72 959.354 3992.77 959.354C3981.82 959.354 3972.94 967.324 3972.94 977.154C3972.94 986.985 3981.82 994.954 3992.77 994.954Z" fill="#ADEDE1"/>
<path d="M3992.77 1129.73C4003.72 1129.73 4012.59 1121.76 4012.59 1111.93C4012.59 1102.1 4003.72 1094.13 3992.77 1094.13C3981.82 1094.13 3972.94 1102.1 3972.94 1111.93C3972.94 1121.76 3981.82 1129.73 3992.77 1129.73Z" fill="#ADEDE1"/>
<path d="M3992.77 1264.5C4003.72 1264.5 4012.59 1256.53 4012.59 1246.7C4012.59 1236.87 4003.72 1228.9 3992.77 1228.9C3981.82 1228.9 3972.94 1236.87 3972.94 1246.7C3972.94 1256.53 3981.82 1264.5 3992.77 1264.5Z" fill="#ADEDE1"/>
<path d="M3992.77 1399.27C4003.72 1399.27 4012.59 1391.3 4012.59 1381.47C4012.59 1371.64 4003.72 1363.67 3992.77 1363.67C3981.82 1363.67 3972.94 1371.64 3972.94 1381.47C3972.94 1391.3 3981.82 1399.27 3992.77 1399.27Z" fill="#ADEDE1"/>
<path d="M3992.77 1534.05C4003.72 1534.05 4012.59 1526.08 4012.59 1516.25C4012.59 1506.41 4003.72 1498.45 3992.77 1498.45C3981.82 1498.45 3972.94 1506.41 3972.94 1516.25C3972.94 1526.08 3981.82 1534.05 3992.77 1534.05Z" fill="#ADEDE1"/>
<path d="M3992.77 1668.82C4003.72 1668.82 4012.59 1660.85 4012.59 1651.02C4012.59 1641.19 4003.72 1633.22 3992.77 1633.22C3981.82 1633.22 3972.94 1641.19 3972.94 1651.02C3972.94 1660.85 3981.82 1668.82 3992.77 1668.82Z" fill="#ADEDE1"/>
<path d="M3992.77 1803.59C4003.72 1803.59 4012.59 1795.62 4012.59 1785.79C4012.59 1775.96 4003.72 1767.99 3992.77 1767.99C3981.82 1767.99 3972.94 1775.96 3972.94 1785.79C3972.94 1795.62 3981.82 1803.59 3992.77 1803.59Z" fill="#ADEDE1"/>
<path d="M3992.77 1938.36C4003.72 1938.36 4012.59 1930.39 4012.59 1920.56C4012.59 1910.73 4003.72 1902.76 3992.77 1902.76C3981.82 1902.76 3972.94 1910.73 3972.94 1920.56C3972.94 1930.39 3981.82 1938.36 3992.77 1938.36Z" fill="#ADEDE1"/>
<path d="M4022.87 586.036C4125.29 586.036 4208.33 511.494 4208.33 419.542C4208.33 327.59 4125.29 253.048 4022.87 253.048C3920.44 253.048 3837.4 327.59 3837.4 419.542C3837.4 511.494 3920.44 586.036 4022.87 586.036Z" fill="#EEBB99"/>
<path d="M4120.06 225.181C4128.95 241.407 4114.85 261.675 4096.2 268.497C4077.55 275.319 4056.48 272.555 4036.58 269.716C4016.69 266.876 3995.59 264.183 3976.99 271.126C3952.93 280.109 3939.37 302.643 3927.68 323.554C3905.86 362.59 3884.04 401.627 3862.22 440.664C3851.56 459.737 3840.65 479.667 3840.45 501.006C3840.07 540.174 3874.68 571.476 3893.31 606.899C3915.98 650.028 3914.11 702.883 3888.43 744.634C3862.76 786.385 3813.93 815.967 3761.19 821.721C3747.32 823.235 3732.63 823.071 3720.16 817.412C3707.68 811.753 3698.16 799.395 3700.47 787.019C3704.99 762.814 3746.19 757.159 3753.76 733.575C3757.71 721.264 3750.71 708.117 3741.28 698.501C3731.85 688.885 3719.92 681.384 3710.93 671.437C3690.19 648.502 3688.8 613.098 3707.71 588.916C3718.82 574.704 3736 564.145 3743.18 548.024C3749.3 534.284 3747.07 518.838 3744.76 504.187C3741.78 485.36 3738.8 466.533 3735.82 447.707C3732.35 425.741 3728.93 402.989 3735.79 381.677C3751.53 332.838 3812.96 309.901 3848.98 270.672C3865.72 252.442 3876.98 230.519 3894.16 212.617C3922.98 182.576 3968.35 166.004 4012.34 169.449C4056.34 172.894 4097.83 196.268 4120.42 230.334" fill="#2E2E41"/>
<path d="M4090.78 228.261C4081.72 231.17 4078.36 241.764 4080.97 250.079C4083.57 258.395 4090.4 265.002 4096.65 271.569C4167.36 345.849 4183.79 458.205 4136.84 546.353C4124.36 569.799 4107.72 591.865 4100.99 617.14C4096.09 635.531 4096.35 655.704 4084.99 671.625C4073.42 687.834 4050.49 698.695 4048.22 717.839C4046.77 730.124 4055.11 742.057 4066.29 749.26C4077.47 756.463 4091.13 759.758 4104.56 762.445C4139.47 769.43 4175.17 773.243 4210.94 773.807C4222.6 773.991 4234.63 773.765 4245.33 769.594C4256.02 765.423 4265.15 756.378 4265.27 745.91C4265.37 737.682 4260.08 730.092 4259.41 721.887C4257.39 697.299 4294.24 684.219 4301.42 660.422C4306.14 644.777 4296.84 628.678 4286.93 615.128C4277.03 601.577 4265.72 587.349 4265.96 571.141C4266.2 555.626 4277.04 541.962 4281.26 526.913C4287.09 506.098 4279.93 484.326 4272.82 463.832C4266.78 446.409 4260.74 428.985 4254.7 411.562C4248.28 393.041 4241.86 374.519 4235.44 355.998C4224.23 323.663 4212.46 290.391 4188.2 264.457C4163.95 238.523 4123.75 221.525 4087.92 232.113" fill="#2E2E41"/>
<path d="M4217.16 873.427L4204.45 870.101C4230.93 788.584 4173.83 636.46 4173.25 634.934L4185.78 631.097C4188.21 637.479 4244.8 788.34 4217.16 873.427Z" fill="#3F3C57"/>
<path d="M4210.8 967.059C4241.35 967.059 4266.11 944.829 4266.11 917.406C4266.11 889.984 4241.35 867.753 4210.8 867.753C4180.26 867.753 4155.49 889.984 4155.49 917.406C4155.49 944.829 4180.26 967.059 4210.8 967.059Z" fill="#3F3C57"/>
<path d="M3847.38 1093.19H3813.84C3810.18 1093.19 3807.22 1090.53 3807.22 1087.25C3807.22 1083.97 3810.18 1081.31 3813.84 1081.31H3847.38C3856.63 1081.31 3865.31 1078.07 3871.84 1072.2C3878.37 1066.33 3881.95 1058.52 3881.94 1050.23L3881.53 864.753C3881.53 824.46 3845.02 791.689 3800.15 791.689C3755.28 791.689 3718.77 824.46 3718.77 864.741L3719.18 1038.35C3719.22 1055.29 3734.6 1069.17 3753.47 1069.3L3776.49 1069.46C3780.14 1069.48 3783.08 1072.16 3783.06 1075.45C3783.03 1078.71 3780.07 1081.34 3776.44 1081.34H3776.39L3753.36 1081.19C3727.27 1081.01 3705.99 1061.8 3705.94 1038.37L3705.53 864.753C3705.53 817.907 3747.98 779.802 3800.15 779.802C3852.32 779.802 3894.77 817.907 3894.77 864.741L3895.18 1050.21C3895.2 1061.68 3890.24 1072.47 3881.21 1080.59C3872.19 1088.72 3860.17 1093.19 3847.38 1093.19Z" fill="#3F3C57"/>
<path d="M3776.44 1096.47C3789.4 1096.47 3799.91 1087.03 3799.91 1075.4C3799.91 1063.77 3789.4 1054.33 3776.44 1054.33C3763.48 1054.33 3752.97 1063.77 3752.97 1075.4C3752.97 1087.03 3763.48 1096.47 3776.44 1096.47Z" fill="#3F3C57"/>
<path d="M3813.84 1108.32C3826.8 1108.32 3837.31 1098.88 3837.31 1087.25C3837.31 1075.62 3826.8 1066.18 3813.84 1066.18C3800.88 1066.18 3790.37 1075.62 3790.37 1087.25C3790.37 1098.88 3800.88 1108.32 3813.84 1108.32Z" fill="#3F3C57"/>
</svg>
